<svg width="155" height="20" viewBox="0 0 155 20" fill="none" xmlns="http://www.w3.org/2000/svg">
<g opacity="0.84">
<g style="mix-blend-mode:multiply">
<path d="M6.66595 6.92213C6.66595 6.92213 6.65824 6.93204 6.65604 6.93644L0.144621 17.671C-0.260622 18.3548 0.233817 19.2226 1.03109 19.2226H4.50318C4.52741 19.2226 4.55384 19.2204 4.57807 19.2182L9.30113 11.3335L6.66925 6.91992H6.66705V6.92213H6.66595Z" fill="#2E283E"/>
<path d="M14.7619 6.23061C14.3567 5.54677 14.8511 4.67902 15.6451 4.67902H17.3453C17.6933 4.67902 18.0182 4.50393 18.2076 4.21101L19.9144 1.58904C20.3582 0.905192 19.8693 0 19.0522 0H11.1676C10.8097 0 10.4782 0.185004 10.2932 0.490037L8.15909 3.95442C7.95978 4.27818 7.95537 4.68673 8.14918 5.01599L12.6872 12.7233C13.0903 13.4072 12.5958 14.2716 11.8008 14.2716H10.704C10.2745 14.2716 9.87587 14.5018 9.66224 14.874L7.15039 19.2248H15.9479C16.308 19.2248 16.6395 19.0376 16.8267 18.7304L19.2108 14.798C19.4079 14.4742 19.4101 14.0679 19.2152 13.7419L14.7641 6.23171H14.7619V6.23061Z" fill="#2E283E"/>
<path d="M32.2271 17.665L22.9803 2.2812C22.7447 1.88697 22.1786 1.87596 21.9265 2.25918L18.635 7.26305C18.3586 7.68041 18.3465 8.2211 18.6041 8.65057L20.8198 12.0885C20.8054 12.0885 20.8341 12.0885 20.8198 12.0885L21.1226 11.604C21.5091 10.9102 22.5035 10.8981 22.9065 11.582L26.9358 18.7156C27.1208 19.0305 27.4567 19.2221 27.8223 19.2221H31.3473C32.1467 19.2221 32.639 18.3511 32.2282 17.6639L32.2271 17.665Z" fill="#2E283E"/>
</g>
<g style="mix-blend-mode:multiply">
<path d="M37.448 15.1796L37.4425 12.5565H45.0376C45.4285 12.5543 45.7104 12.3043 45.7104 11.8672C45.7104 11.43 45.4307 11.1646 45.0397 11.1624H40.5711C38.6792 11.1679 37.3203 9.91474 37.3203 8.10326C37.3203 6.29178 38.677 5.02539 40.5689 5.02539H48.2839L48.2894 7.62973H40.6944C40.3035 7.63194 40.037 7.8665 40.037 8.30257C40.037 8.73865 40.3002 8.98863 40.6911 8.99193H45.1576C47.0627 8.98973 48.4215 10.2528 48.4215 12.0643C48.4215 13.8758 47.0649 15.1741 45.1576 15.1719H37.4459L37.448 15.1796Z" fill="#2E283E"/>
<path d="M61.8732 15.1757L60.3734 8.64775L58.6125 14.2077C58.4231 14.8618 57.9738 15.1757 57.3329 15.1757H56.5059C55.8485 15.1757 55.4124 14.8618 55.2241 14.2077L53.4578 8.53873L51.9602 15.1757L49.2578 15.1812L51.3171 6.18215C51.4877 5.33863 51.9558 5.02809 52.644 5.02479H53.7849C54.4258 5.02259 54.8784 5.33863 55.0832 6.00596L56.9266 12.0813L58.7513 6.00596C58.9561 5.33533 59.39 5.02479 60.0309 5.02148H61.1717C61.8578 5.02148 62.3258 5.33533 62.5152 6.17555L64.5954 15.1724H61.8743V15.1746L61.8732 15.1757Z" fill="#2E283E"/>
<path d="M73.99 15.1721L71.9572 12.5942L69.5521 12.5997V10.2211H73.0474C73.7973 10.2211 74.3292 9.70466 74.327 8.9228C74.3247 8.14095 73.7951 7.62448 73.0451 7.62779H68.7648V15.1743H66.0459V5.02344H73.0418C75.3698 5.02344 77.0557 6.55301 77.0557 8.81709C77.0557 10.3632 76.2441 11.5833 74.9778 12.1901L77.5392 15.1721H73.9768H73.9878H73.99Z" fill="#2E283E"/>
<path d="M78.9248 15.1746V5.02369H81.6569V15.1746H78.9248ZM86.7962 15.1724L82.6414 10.9107C82.3914 10.6288 82.2659 10.4108 82.2659 10.0837V9.83375C82.2659 9.53532 82.3881 9.25671 82.6248 9.00674L86.6365 5.02148H90.1351L85.2479 9.92735L90.3872 15.1735H86.7907H86.7962V15.1724Z" fill="#2E283E"/>
<path d="M95.8085 15.1685C92.7009 15.1685 90.4379 13.1224 90.4346 10.093C90.4346 7.06361 92.6986 5.01758 95.8051 5.01758H97.2731C100.364 5.01758 102.63 7.06361 102.63 10.093C102.63 13.1224 100.366 15.1685 97.2752 15.1685H95.8073H95.8085ZM97.4614 12.5454C98.8819 12.5454 99.9115 11.5455 99.9115 10.093C99.9115 8.64054 98.8797 7.62743 97.4592 7.62743H95.6157C94.1952 7.62743 93.1501 8.62732 93.1501 10.0963C93.1501 11.5653 94.182 12.5465 95.619 12.5465H97.4625L97.4614 12.5454Z" fill="#2E283E"/>
<path d="M113.893 15.1631C113.159 15.1631 112.864 14.8999 112.33 14.3042L107.094 8.6517V15.1642L104.439 15.1697V6.17068C104.437 5.40425 104.86 5.01662 105.703 5.01332H106.36C107.203 5.01332 107.546 5.24788 108.015 5.76324L112.809 10.9323V5.01332L115.445 5.00781V14.1159C115.447 14.8019 115.101 15.1609 114.432 15.1642H113.887H113.894L113.893 15.1631Z" fill="#2E283E"/>
<path d="M122.625 15.1626C119.517 15.1626 117.254 13.1166 117.251 10.0872C117.251 7.05775 119.515 5.01172 122.622 5.01172H124.089C127.181 5.01172 129.447 7.05775 129.447 10.0872C129.447 13.1166 127.183 15.1626 124.092 15.1626H122.624H122.625ZM124.277 12.5362C125.697 12.5362 126.727 11.5364 126.727 10.0839C126.727 8.63138 125.695 7.61827 124.274 7.61827H122.431C121.01 7.61827 119.965 8.61816 119.965 10.0872C119.965 11.5562 120.997 12.5373 122.434 12.5373H124.278L124.277 12.5362Z" fill="#2E283E"/>
<path d="M135.882 15.1565C135.35 15.1565 134.929 14.9087 134.666 14.4088L129.479 5.00781H132.556L136.196 11.8793L139.835 5.00781H142.913L137.716 14.4088C137.449 14.9087 137.043 15.1565 136.513 15.1587H135.882V15.1565Z" fill="#2E283E"/>
<path d="M151.359 15.1542L150.516 13.5927H145.751L146.908 11.4222L149.36 11.4167L147.626 8.15495L143.91 15.1509H140.896L146.078 5.74992C146.36 5.24997 146.767 5.0022 147.296 5H147.921C148.453 5 148.857 5.24997 149.137 5.74992L154.325 15.1509H151.359V15.1531V15.1542Z" fill="#2E283E"/>
</g>
</g>
</svg>
