<svg width="18" height="12" viewBox="0 0 18 12" fill="none" xmlns="http://www.w3.org/2000/svg">
<g opacity="0.9">
<path d="M17.6311 9.06629L12.5141 0.584325C12.2968 0.223936 11.9115 0.00292052 11.4957 4.75539e-06C11.4929 4.75539e-06 11.49 4.75539e-06 11.4871 4.75539e-06C11.0743 4.75539e-06 10.6907 0.215189 10.4693 0.569746L9.63562 1.90983L7.52551 5.29912L5.54555 8.48197H3.38899L6.46357 3.54033L7.11954 4.62791L8.55419 2.32271L7.50544 0.584325C7.29041 0.223936 6.90566 0.00292052 6.48994 4.75539e-06C6.07537 -0.00116155 5.68661 0.212273 5.46413 0.569746L0.186546 9.05172C-0.0479752 9.42902 -0.0623102 9.90604 0.149275 10.2973C0.36086 10.6886 0.765108 10.9312 1.20433 10.9312H6.2107C6.5966 10.9312 6.95727 10.7434 7.18261 10.4291L10.619 4.90899H10.6202L11.4717 3.54033L14.4786 8.52454L12.3237 8.5677L10.8002 6.04206L9.36555 8.34727L10.6322 10.4466C10.8512 10.8099 11.2406 11.0309 11.6586 11.0309C11.6666 11.0309 11.6746 11.0309 11.6827 11.0309L16.6288 10.9318C17.0606 10.9231 17.4545 10.6799 17.6615 10.295C17.8685 9.90953 17.857 9.44126 17.6311 9.06688V9.06629Z" fill="white"/>
<path d="M17.6311 9.06629L12.5141 0.584325C12.2968 0.223936 11.9115 0.00292052 11.4957 4.75539e-06C11.4929 4.75539e-06 11.49 4.75539e-06 11.4871 4.75539e-06C11.0743 4.75539e-06 10.6907 0.215189 10.4693 0.569746L9.63562 1.90983L7.52551 5.29912L5.54555 8.48197H3.38899L6.46357 3.54033L7.11954 4.62791L8.55419 2.32271L7.50544 0.584325C7.29041 0.223936 6.90566 0.00292052 6.48994 4.75539e-06C6.07537 -0.00116155 5.68661 0.212273 5.46413 0.569746L0.186546 9.05172C-0.0479752 9.42902 -0.0623102 9.90604 0.149275 10.2973C0.36086 10.6886 0.765108 10.9312 1.20433 10.9312H6.2107C6.5966 10.9312 6.95727 10.7434 7.18261 10.4291L10.619 4.90899H10.6202L11.4717 3.54033L14.4786 8.52454L12.3237 8.5677L10.8002 6.04206L9.36555 8.34727L10.6322 10.4466C10.8512 10.8099 11.2406 11.0309 11.6586 11.0309C11.6666 11.0309 11.6746 11.0309 11.6827 11.0309L16.6288 10.9318C17.0606 10.9231 17.4545 10.6799 17.6615 10.295C17.8685 9.90953 17.857 9.44126 17.6311 9.06688V9.06629Z" fill="white"/>
<path d="M17.6311 9.06629L12.5141 0.584325C12.2968 0.223936 11.9115 0.00292052 11.4957 4.75539e-06C11.4929 4.75539e-06 11.49 4.75539e-06 11.4871 4.75539e-06C11.0743 4.75539e-06 10.6907 0.215189 10.4693 0.569746L9.63562 1.90983L7.52551 5.29912L5.54555 8.48197H3.38899L6.46357 3.54033L7.11954 4.62791L8.55419 2.32271L7.50544 0.584325C7.29041 0.223936 6.90566 0.00292052 6.48994 4.75539e-06C6.07537 -0.00116155 5.68661 0.212273 5.46413 0.569746L0.186546 9.05172C-0.0479752 9.42902 -0.0623102 9.90604 0.149275 10.2973C0.36086 10.6886 0.765108 10.9312 1.20433 10.9312H6.2107C6.5966 10.9312 6.95727 10.7434 7.18261 10.4291L10.619 4.90899H10.6202L11.4717 3.54033L14.4786 8.52454L12.3237 8.5677L10.8002 6.04206L9.36555 8.34727L10.6322 10.4466C10.8512 10.8099 11.2406 11.0309 11.6586 11.0309C11.6666 11.0309 11.6746 11.0309 11.6827 11.0309L16.6288 10.9318C17.0606 10.9231 17.4545 10.6799 17.6615 10.295C17.8685 9.90953 17.857 9.44126 17.6311 9.06688V9.06629Z" fill="white"/>
</g>
</svg>
